G75*
%MOIN*%
%OFA0B0*%
%FSLAX25Y25*%
%IPPOS*%
%LPD*%
%AMOC8*
5,1,8,0,0,1.08239X$1,22.5*
%
%ADD10C,0.00000*%
%ADD11C,0.00200*%
%ADD12C,0.00197*%
%ADD13C,0.00600*%
%ADD14R,0.02559X0.05512*%
%ADD15R,0.02300X0.01800*%
%ADD16C,0.00500*%
%ADD17C,0.01000*%
%ADD18R,0.03346X0.02953*%
%ADD19R,0.05315X0.03543*%
D10*
X0001098Y0086617D02*
X0001098Y0086633D01*
X0091965Y0086617D02*
X0091965Y0086633D01*
D11*
X0089998Y0071714D02*
X0089998Y0069512D01*
X0091099Y0069512D01*
X0091466Y0069879D01*
X0091466Y0070613D01*
X0091099Y0070980D01*
X0089998Y0070980D01*
X0089256Y0071347D02*
X0089256Y0069879D01*
X0088889Y0069512D01*
X0088155Y0069512D01*
X0087788Y0069879D01*
X0089256Y0071347D01*
X0088889Y0071714D01*
X0088155Y0071714D01*
X0087788Y0071347D01*
X0087788Y0069879D01*
X0087050Y0069879D02*
X0087050Y0069512D01*
X0086683Y0069512D01*
X0086683Y0069879D01*
X0087050Y0069879D01*
X0085941Y0069512D02*
X0084474Y0069512D01*
X0085941Y0070980D01*
X0085941Y0071347D01*
X0085575Y0071714D01*
X0084841Y0071714D01*
X0084474Y0071347D01*
X0083732Y0071714D02*
X0083732Y0070246D01*
X0082998Y0069512D01*
X0082264Y0070246D01*
X0082264Y0071714D01*
X0079313Y0070980D02*
X0078946Y0070980D01*
X0078212Y0070246D01*
X0078212Y0069512D02*
X0078212Y0070980D01*
X0077470Y0070613D02*
X0077470Y0070246D01*
X0076002Y0070246D01*
X0076002Y0069879D02*
X0076002Y0070613D01*
X0076369Y0070980D01*
X0077103Y0070980D01*
X0077470Y0070613D01*
X0077103Y0069512D02*
X0076369Y0069512D01*
X0076002Y0069879D01*
X0075262Y0069512D02*
X0074161Y0070246D01*
X0075262Y0070980D01*
X0074161Y0071714D02*
X0074161Y0069512D01*
X0073419Y0069512D02*
X0073419Y0070613D01*
X0073052Y0070980D01*
X0071951Y0070980D01*
X0071951Y0069512D01*
X0071212Y0069512D02*
X0070478Y0069512D01*
X0070845Y0069512D02*
X0070845Y0070980D01*
X0070478Y0070980D01*
X0070845Y0071714D02*
X0070845Y0072081D01*
X0069371Y0071714D02*
X0069371Y0069512D01*
X0069004Y0069512D02*
X0069738Y0069512D01*
X0068262Y0069879D02*
X0068262Y0070613D01*
X0067895Y0070980D01*
X0066795Y0070980D01*
X0066795Y0071714D02*
X0066795Y0069512D01*
X0067895Y0069512D01*
X0068262Y0069879D01*
X0069004Y0071714D02*
X0069371Y0071714D01*
X0066055Y0070980D02*
X0065321Y0070980D01*
X0065688Y0071347D02*
X0065688Y0069879D01*
X0066055Y0069512D01*
X0064581Y0070980D02*
X0064214Y0070980D01*
X0063480Y0070246D01*
X0063480Y0069512D02*
X0063480Y0070980D01*
X0062738Y0070613D02*
X0062738Y0069879D01*
X0062371Y0069512D01*
X0061637Y0069512D01*
X0061270Y0069879D01*
X0061270Y0070613D01*
X0061637Y0070980D01*
X0062371Y0070980D01*
X0062738Y0070613D01*
X0060531Y0070613D02*
X0059797Y0070613D01*
X0059055Y0070613D02*
X0059055Y0069512D01*
X0058321Y0069512D02*
X0058321Y0070613D01*
X0058688Y0070980D01*
X0059055Y0070613D01*
X0058321Y0070613D02*
X0057954Y0070980D01*
X0057587Y0070980D01*
X0057587Y0069512D01*
X0056845Y0069879D02*
X0056845Y0070613D01*
X0056478Y0070980D01*
X0055744Y0070980D01*
X0055377Y0070613D01*
X0055377Y0069879D01*
X0055744Y0069512D01*
X0056478Y0069512D01*
X0056845Y0069879D01*
X0054635Y0069512D02*
X0053534Y0070613D01*
X0053167Y0070246D02*
X0054635Y0071714D01*
X0053167Y0071714D02*
X0053167Y0069512D01*
X0053167Y0067777D02*
X0053901Y0067043D01*
X0054635Y0067777D01*
X0054635Y0065575D01*
X0055377Y0065942D02*
X0055744Y0065575D01*
X0056478Y0065575D01*
X0056845Y0065942D01*
X0056845Y0066676D01*
X0056478Y0067043D01*
X0055744Y0067043D01*
X0055377Y0066676D01*
X0055377Y0065942D01*
X0053167Y0065575D02*
X0053167Y0067777D01*
X0053167Y0063840D02*
X0053167Y0061638D01*
X0054268Y0061638D01*
X0054635Y0062005D01*
X0054635Y0062739D01*
X0054268Y0063106D01*
X0053167Y0063106D01*
X0055377Y0063106D02*
X0055377Y0062005D01*
X0055744Y0061638D01*
X0056845Y0061638D01*
X0056845Y0061271D02*
X0056478Y0060904D01*
X0056111Y0060904D01*
X0056845Y0061271D02*
X0056845Y0063106D01*
X0057954Y0065575D02*
X0057587Y0065942D01*
X0057587Y0066676D01*
X0057954Y0067043D01*
X0059055Y0067043D01*
X0059055Y0067777D02*
X0059055Y0065575D01*
X0057954Y0065575D01*
X0059797Y0065942D02*
X0060164Y0065575D01*
X0061264Y0065575D01*
X0061264Y0067043D01*
X0062006Y0067777D02*
X0062373Y0067777D01*
X0062373Y0065575D01*
X0062006Y0065575D02*
X0062740Y0065575D01*
X0063480Y0065942D02*
X0063480Y0066676D01*
X0063847Y0067043D01*
X0064581Y0067043D01*
X0064948Y0066676D01*
X0064948Y0066309D01*
X0063480Y0066309D01*
X0063480Y0065942D02*
X0063847Y0065575D01*
X0064581Y0065575D01*
X0064583Y0063106D02*
X0064216Y0063106D01*
X0064216Y0061638D01*
X0064950Y0061638D02*
X0064950Y0062739D01*
X0065317Y0063106D01*
X0065684Y0062739D01*
X0065684Y0061638D01*
X0066426Y0061638D02*
X0067527Y0061638D01*
X0067894Y0062005D01*
X0067894Y0062739D01*
X0067527Y0063106D01*
X0066426Y0063106D01*
X0066426Y0060904D01*
X0066789Y0059509D02*
X0066789Y0057308D01*
X0065688Y0057308D01*
X0065321Y0057675D01*
X0065321Y0058409D01*
X0065688Y0058775D01*
X0066789Y0058775D01*
X0067531Y0058409D02*
X0067531Y0057675D01*
X0067898Y0057308D01*
X0068632Y0057308D01*
X0068999Y0058042D02*
X0067531Y0058042D01*
X0067531Y0058409D02*
X0067898Y0058775D01*
X0068632Y0058775D01*
X0068999Y0058409D01*
X0068999Y0058042D01*
X0069003Y0061638D02*
X0069003Y0063473D01*
X0069370Y0063840D01*
X0070109Y0063840D02*
X0070109Y0061638D01*
X0070109Y0062372D02*
X0071210Y0063106D01*
X0071951Y0063106D02*
X0071951Y0062005D01*
X0072318Y0061638D01*
X0073419Y0061638D01*
X0073419Y0063106D01*
X0074161Y0062739D02*
X0074161Y0062005D01*
X0074528Y0061638D01*
X0075629Y0061638D01*
X0076371Y0061638D02*
X0076371Y0063840D01*
X0076738Y0063106D02*
X0077472Y0063106D01*
X0077839Y0062739D01*
X0077839Y0061638D01*
X0078581Y0062005D02*
X0078581Y0062739D01*
X0078948Y0063106D01*
X0079681Y0063106D01*
X0080048Y0062739D01*
X0080048Y0062372D01*
X0078581Y0062372D01*
X0078581Y0062005D02*
X0078948Y0061638D01*
X0079681Y0061638D01*
X0080790Y0061638D02*
X0080790Y0063106D01*
X0081891Y0063106D01*
X0082258Y0062739D01*
X0082258Y0061638D01*
X0081890Y0065575D02*
X0080789Y0065575D01*
X0080422Y0065942D01*
X0080422Y0066676D01*
X0080789Y0067043D01*
X0081890Y0067043D01*
X0081890Y0067777D02*
X0081890Y0065575D01*
X0082632Y0065942D02*
X0082999Y0066309D01*
X0084100Y0066309D01*
X0084100Y0066676D02*
X0084100Y0065575D01*
X0082999Y0065575D01*
X0082632Y0065942D01*
X0082999Y0067043D02*
X0083733Y0067043D01*
X0084100Y0066676D01*
X0084842Y0065575D02*
X0085576Y0066309D01*
X0085576Y0067043D01*
X0084842Y0067777D01*
X0079680Y0067043D02*
X0078212Y0065575D01*
X0079680Y0065575D01*
X0079680Y0067043D02*
X0078212Y0067043D01*
X0077470Y0066676D02*
X0077470Y0065575D01*
X0076369Y0065575D01*
X0076002Y0065942D01*
X0076369Y0066309D01*
X0077470Y0066309D01*
X0077470Y0066676D02*
X0077103Y0067043D01*
X0076369Y0067043D01*
X0075260Y0067777D02*
X0075260Y0065575D01*
X0074526Y0067043D02*
X0075260Y0067777D01*
X0074526Y0067043D02*
X0073792Y0067777D01*
X0073792Y0065575D01*
X0073053Y0065575D02*
X0072319Y0066309D01*
X0072319Y0067043D01*
X0073053Y0067777D01*
X0069367Y0067777D02*
X0069367Y0065575D01*
X0068633Y0067043D02*
X0069367Y0067777D01*
X0068633Y0067043D02*
X0067899Y0067777D01*
X0067899Y0065575D01*
X0068636Y0062739D02*
X0069370Y0062739D01*
X0070109Y0062372D02*
X0071210Y0061638D01*
X0074161Y0062739D02*
X0074528Y0063106D01*
X0075629Y0063106D01*
X0076371Y0062739D02*
X0076738Y0063106D01*
X0064950Y0062739D02*
X0064583Y0063106D01*
X0063474Y0062739D02*
X0063474Y0061638D01*
X0062373Y0061638D01*
X0062006Y0062005D01*
X0062373Y0062372D01*
X0063474Y0062372D01*
X0063474Y0062739D02*
X0063107Y0063106D01*
X0062373Y0063106D01*
X0061264Y0063840D02*
X0059797Y0062372D01*
X0060164Y0062739D02*
X0061264Y0061638D01*
X0059797Y0061638D02*
X0059797Y0063840D01*
X0059797Y0065942D02*
X0059797Y0067043D01*
X0060164Y0069512D02*
X0060164Y0071347D01*
X0060531Y0071714D01*
X0059055Y0059509D02*
X0058321Y0059142D01*
X0057587Y0058409D01*
X0058688Y0058409D01*
X0059055Y0058042D01*
X0059055Y0057675D01*
X0058688Y0057308D01*
X0057954Y0057308D01*
X0057587Y0057675D01*
X0057587Y0058409D01*
X0056845Y0058775D02*
X0056845Y0059142D01*
X0056478Y0059509D01*
X0055744Y0059509D01*
X0055377Y0059142D01*
X0054635Y0059509D02*
X0053901Y0059142D01*
X0053167Y0058409D01*
X0054268Y0058409D01*
X0054635Y0058042D01*
X0054635Y0057675D01*
X0054268Y0057308D01*
X0053534Y0057308D01*
X0053167Y0057675D01*
X0053167Y0058409D01*
X0055377Y0057308D02*
X0056845Y0058775D01*
X0056845Y0057308D02*
X0055377Y0057308D01*
X0059797Y0057675D02*
X0060164Y0057308D01*
X0061264Y0057308D01*
X0061264Y0056941D02*
X0061264Y0058775D01*
X0060164Y0058775D01*
X0059797Y0058409D01*
X0059797Y0057675D01*
X0060531Y0056574D02*
X0060898Y0056574D01*
X0061264Y0056941D01*
X0062006Y0057675D02*
X0062006Y0058409D01*
X0062373Y0058775D01*
X0063107Y0058775D01*
X0063474Y0058409D01*
X0063474Y0058042D01*
X0062006Y0058042D01*
X0062006Y0057675D02*
X0062373Y0057308D01*
X0063107Y0057308D01*
X0064216Y0057308D02*
X0064583Y0057308D01*
X0064583Y0057675D01*
X0064216Y0057675D01*
X0064216Y0057308D01*
D12*
X0091965Y0024137D02*
X0001098Y0024137D01*
X0001098Y0086617D01*
X0035350Y0086617D01*
X0035350Y0075712D01*
X0043224Y0075712D01*
X0043224Y0086617D01*
X0091965Y0086617D01*
X0091965Y0024137D01*
D13*
X0065705Y0027149D02*
X0062476Y0027149D01*
X0062476Y0032149D02*
X0065705Y0032149D01*
X0065705Y0033841D02*
X0062476Y0033841D01*
X0062476Y0038841D02*
X0065705Y0038841D01*
X0065657Y0040463D02*
X0062429Y0040463D01*
X0062429Y0045463D02*
X0065657Y0045463D01*
X0065705Y0047227D02*
X0062476Y0047227D01*
X0062476Y0052227D02*
X0065705Y0052227D01*
X0051925Y0044747D02*
X0048697Y0044747D01*
X0048697Y0039747D02*
X0051925Y0039747D01*
X0051925Y0032149D02*
X0048697Y0032149D01*
X0048697Y0027149D02*
X0051925Y0027149D01*
X0037911Y0025962D02*
X0032711Y0025962D01*
X0032711Y0037162D01*
X0037911Y0037162D01*
X0037911Y0025962D01*
X0037911Y0038962D02*
X0032711Y0038962D01*
X0032711Y0050162D01*
X0037911Y0050162D01*
X0037911Y0038962D01*
D14*
X0047431Y0042241D03*
X0053231Y0042241D03*
X0061164Y0042958D03*
X0066964Y0042958D03*
X0067011Y0036336D03*
X0061211Y0036336D03*
X0061211Y0029643D03*
X0067011Y0029643D03*
X0053231Y0029643D03*
X0047431Y0029643D03*
X0061211Y0049721D03*
X0067011Y0049721D03*
D15*
X0039261Y0048262D03*
X0039261Y0040862D03*
X0039261Y0035262D03*
X0039261Y0027862D03*
X0031361Y0031562D03*
X0024261Y0027925D03*
X0024261Y0035325D03*
X0024261Y0040744D03*
X0024261Y0048144D03*
X0031361Y0044562D03*
X0016361Y0044444D03*
X0016361Y0031625D03*
D16*
X0017711Y0026025D02*
X0017711Y0037225D01*
X0022911Y0037225D01*
X0022911Y0026025D01*
X0017711Y0026025D01*
X0017711Y0038844D02*
X0017711Y0050044D01*
X0022911Y0050044D01*
X0022911Y0038844D01*
X0017711Y0038844D01*
X0023146Y0052877D02*
X0023146Y0073349D01*
X0043618Y0073349D01*
X0043618Y0052877D01*
X0023146Y0052877D01*
D17*
X0073146Y0042641D02*
X0073146Y0033979D01*
X0078657Y0033979D01*
X0078657Y0042641D01*
X0073146Y0042641D01*
X0082988Y0042641D02*
X0082988Y0033979D01*
X0088500Y0033979D01*
X0088500Y0042641D01*
X0082988Y0042641D01*
D18*
X0085646Y0044511D03*
X0075803Y0044511D03*
X0075803Y0032109D03*
X0085646Y0032109D03*
D19*
X0085843Y0040672D03*
X0076000Y0040672D03*
M02*
