G75*
%MOIN*%
%OFA0B0*%
%FSLAX25Y25*%
%IPPOS*%
%LPD*%
%AMOC8*
5,1,8,0,0,1.08239X$1,22.5*
%
%ADD10C,0.00000*%
%ADD11C,0.00197*%
%ADD12C,0.00400*%
%ADD13R,0.05709X0.02953*%
%ADD14C,0.00600*%
%ADD15C,0.00800*%
%ADD16R,0.06800X0.02200*%
%ADD17R,0.06200X0.02400*%
%ADD18R,0.02300X0.01800*%
%ADD19R,0.01400X0.05600*%
%ADD20R,0.02559X0.05512*%
%ADD21C,0.01000*%
%ADD22R,0.02953X0.03346*%
%ADD23R,0.03543X0.05315*%
%ADD24C,0.00200*%
%ADD25R,0.01378X0.04331*%
D10*
X0001098Y0086617D02*
X0001098Y0086633D01*
X0091965Y0086617D02*
X0091965Y0086633D01*
D11*
X0091965Y0024137D02*
X0001098Y0024137D01*
X0001098Y0086617D01*
X0035350Y0086617D01*
X0035350Y0075712D01*
X0043224Y0075712D01*
X0043224Y0086617D01*
X0091965Y0086617D01*
X0091965Y0024137D01*
D12*
X0086783Y0036093D02*
X0086783Y0038995D01*
X0081587Y0039093D02*
X0081587Y0036093D01*
D13*
X0084181Y0034717D03*
X0084181Y0040417D03*
D14*
X0077575Y0045889D02*
X0077575Y0059078D01*
X0077573Y0059140D01*
X0077567Y0059201D01*
X0077558Y0059262D01*
X0077544Y0059323D01*
X0077527Y0059382D01*
X0077506Y0059440D01*
X0077481Y0059497D01*
X0077453Y0059552D01*
X0077422Y0059605D01*
X0077387Y0059656D01*
X0077349Y0059705D01*
X0077308Y0059752D01*
X0077265Y0059795D01*
X0077218Y0059836D01*
X0077169Y0059874D01*
X0077118Y0059909D01*
X0077065Y0059940D01*
X0077010Y0059968D01*
X0076953Y0059993D01*
X0076895Y0060014D01*
X0076836Y0060031D01*
X0076775Y0060045D01*
X0076714Y0060054D01*
X0076653Y0060060D01*
X0076591Y0060062D01*
X0076630Y0060062D02*
X0059504Y0060062D01*
X0059465Y0060062D02*
X0059403Y0060060D01*
X0059342Y0060054D01*
X0059281Y0060045D01*
X0059220Y0060031D01*
X0059161Y0060014D01*
X0059103Y0059993D01*
X0059046Y0059968D01*
X0058991Y0059940D01*
X0058938Y0059909D01*
X0058887Y0059874D01*
X0058838Y0059836D01*
X0058791Y0059795D01*
X0058748Y0059752D01*
X0058707Y0059705D01*
X0058669Y0059656D01*
X0058634Y0059605D01*
X0058603Y0059552D01*
X0058575Y0059497D01*
X0058550Y0059440D01*
X0058529Y0059382D01*
X0058512Y0059323D01*
X0058498Y0059262D01*
X0058489Y0059201D01*
X0058483Y0059140D01*
X0058481Y0059078D01*
X0058480Y0059038D02*
X0058480Y0045889D01*
X0058481Y0045889D02*
X0058483Y0045827D01*
X0058489Y0045766D01*
X0058498Y0045705D01*
X0058512Y0045644D01*
X0058529Y0045585D01*
X0058550Y0045527D01*
X0058575Y0045470D01*
X0058603Y0045415D01*
X0058634Y0045362D01*
X0058669Y0045311D01*
X0058707Y0045262D01*
X0058748Y0045215D01*
X0058791Y0045172D01*
X0058838Y0045131D01*
X0058887Y0045093D01*
X0058938Y0045058D01*
X0058991Y0045027D01*
X0059046Y0044999D01*
X0059103Y0044974D01*
X0059161Y0044953D01*
X0059220Y0044936D01*
X0059281Y0044922D01*
X0059342Y0044913D01*
X0059403Y0044907D01*
X0059465Y0044905D01*
X0059504Y0044904D02*
X0076630Y0044904D01*
X0076728Y0044904D01*
X0076591Y0044905D02*
X0076653Y0044907D01*
X0076714Y0044913D01*
X0076775Y0044922D01*
X0076836Y0044936D01*
X0076895Y0044953D01*
X0076953Y0044974D01*
X0077010Y0044999D01*
X0077065Y0045027D01*
X0077118Y0045058D01*
X0077169Y0045093D01*
X0077218Y0045131D01*
X0077265Y0045172D01*
X0077308Y0045215D01*
X0077349Y0045262D01*
X0077387Y0045311D01*
X0077422Y0045362D01*
X0077453Y0045415D01*
X0077481Y0045470D01*
X0077506Y0045527D01*
X0077527Y0045585D01*
X0077544Y0045644D01*
X0077558Y0045705D01*
X0077567Y0045766D01*
X0077573Y0045827D01*
X0077575Y0045889D01*
X0074287Y0044904D02*
X0071768Y0044904D01*
X0064287Y0044904D02*
X0061768Y0044904D01*
X0053111Y0031755D02*
X0047511Y0031755D01*
X0047958Y0035804D02*
X0044758Y0035804D01*
X0042758Y0035804D02*
X0047958Y0035804D01*
X0047958Y0038004D01*
X0047958Y0035804D02*
X0047958Y0047004D01*
X0047958Y0044804D01*
X0047958Y0047004D02*
X0044758Y0047004D01*
X0042758Y0047004D02*
X0042758Y0035804D01*
X0047511Y0026755D02*
X0053111Y0026755D01*
X0047958Y0047004D02*
X0042758Y0047004D01*
X0029489Y0047227D02*
X0023889Y0047227D01*
X0024483Y0044697D02*
X0024483Y0033497D01*
X0029683Y0033497D01*
X0029683Y0035697D01*
X0029683Y0033497D02*
X0026483Y0033497D01*
X0029683Y0033497D02*
X0029683Y0044697D01*
X0029683Y0042497D01*
X0029683Y0044697D02*
X0026483Y0044697D01*
X0024483Y0044697D02*
X0029683Y0044697D01*
X0029489Y0052227D02*
X0023889Y0052227D01*
X0024483Y0057513D02*
X0029683Y0057513D01*
X0029683Y0059713D01*
X0029683Y0057513D02*
X0026483Y0057513D01*
X0024483Y0057513D02*
X0024483Y0068713D01*
X0029683Y0068713D01*
X0029683Y0066513D01*
X0029683Y0068713D02*
X0026483Y0068713D01*
X0026483Y0071686D02*
X0029683Y0071686D01*
X0029683Y0073886D01*
X0029683Y0071686D02*
X0029683Y0082886D01*
X0029683Y0080686D01*
X0029683Y0082886D02*
X0026483Y0082886D01*
X0024483Y0082886D02*
X0024483Y0071686D01*
X0029683Y0071686D01*
X0029683Y0068713D02*
X0029683Y0057513D01*
X0042398Y0061400D02*
X0045626Y0061400D01*
X0045626Y0066400D02*
X0042398Y0066400D01*
X0029683Y0082886D02*
X0024483Y0082886D01*
X0066728Y0060062D02*
X0069287Y0060062D01*
X0071728Y0060062D02*
X0074287Y0060062D01*
X0076512Y0060062D02*
X0076630Y0060062D01*
X0076689Y0060062D01*
X0080030Y0059856D02*
X0080030Y0049456D01*
X0086230Y0049456D02*
X0086230Y0059856D01*
X0029489Y0030967D02*
X0023889Y0030967D01*
X0023889Y0025967D02*
X0029489Y0025967D01*
D15*
X0083130Y0052688D02*
X0081161Y0056625D01*
X0085098Y0056625D01*
X0083130Y0052688D01*
D16*
X0083130Y0048456D03*
X0083130Y0060856D03*
D17*
X0083130Y0052456D03*
D18*
X0049308Y0041404D03*
X0041408Y0037704D03*
X0041408Y0045104D03*
X0031033Y0039097D03*
X0023133Y0035397D03*
X0023133Y0042797D03*
X0023133Y0059413D03*
X0023133Y0066813D03*
X0023133Y0073586D03*
X0023133Y0080986D03*
X0031033Y0077286D03*
X0031033Y0063113D03*
D19*
X0030089Y0049727D03*
X0023289Y0049727D03*
X0023289Y0028467D03*
X0030089Y0028467D03*
X0046911Y0029255D03*
X0053711Y0029255D03*
D20*
X0046932Y0063906D03*
X0041132Y0063906D03*
D21*
X0039681Y0059570D02*
X0039681Y0054058D01*
X0048343Y0054058D01*
X0048343Y0059570D01*
X0039681Y0059570D01*
D22*
X0037811Y0056715D03*
X0050213Y0056715D03*
D23*
X0046374Y0056912D03*
D24*
X0060468Y0056873D02*
X0060470Y0056961D01*
X0060476Y0057049D01*
X0060486Y0057137D01*
X0060500Y0057225D01*
X0060517Y0057311D01*
X0060539Y0057397D01*
X0060564Y0057481D01*
X0060594Y0057565D01*
X0060626Y0057647D01*
X0060663Y0057727D01*
X0060703Y0057806D01*
X0060747Y0057883D01*
X0060794Y0057958D01*
X0060844Y0058030D01*
X0060898Y0058101D01*
X0060954Y0058168D01*
X0061014Y0058234D01*
X0061076Y0058296D01*
X0061142Y0058356D01*
X0061209Y0058412D01*
X0061280Y0058466D01*
X0061352Y0058516D01*
X0061427Y0058563D01*
X0061504Y0058607D01*
X0061583Y0058647D01*
X0061663Y0058684D01*
X0061745Y0058716D01*
X0061829Y0058746D01*
X0061913Y0058771D01*
X0061999Y0058793D01*
X0062085Y0058810D01*
X0062173Y0058824D01*
X0062261Y0058834D01*
X0062349Y0058840D01*
X0062437Y0058842D01*
X0062525Y0058840D01*
X0062613Y0058834D01*
X0062701Y0058824D01*
X0062789Y0058810D01*
X0062875Y0058793D01*
X0062961Y0058771D01*
X0063045Y0058746D01*
X0063129Y0058716D01*
X0063211Y0058684D01*
X0063291Y0058647D01*
X0063370Y0058607D01*
X0063447Y0058563D01*
X0063522Y0058516D01*
X0063594Y0058466D01*
X0063665Y0058412D01*
X0063732Y0058356D01*
X0063798Y0058296D01*
X0063860Y0058234D01*
X0063920Y0058168D01*
X0063976Y0058101D01*
X0064030Y0058030D01*
X0064080Y0057958D01*
X0064127Y0057883D01*
X0064171Y0057806D01*
X0064211Y0057727D01*
X0064248Y0057647D01*
X0064280Y0057565D01*
X0064310Y0057481D01*
X0064335Y0057397D01*
X0064357Y0057311D01*
X0064374Y0057225D01*
X0064388Y0057137D01*
X0064398Y0057049D01*
X0064404Y0056961D01*
X0064406Y0056873D01*
X0064404Y0056785D01*
X0064398Y0056697D01*
X0064388Y0056609D01*
X0064374Y0056521D01*
X0064357Y0056435D01*
X0064335Y0056349D01*
X0064310Y0056265D01*
X0064280Y0056181D01*
X0064248Y0056099D01*
X0064211Y0056019D01*
X0064171Y0055940D01*
X0064127Y0055863D01*
X0064080Y0055788D01*
X0064030Y0055716D01*
X0063976Y0055645D01*
X0063920Y0055578D01*
X0063860Y0055512D01*
X0063798Y0055450D01*
X0063732Y0055390D01*
X0063665Y0055334D01*
X0063594Y0055280D01*
X0063522Y0055230D01*
X0063447Y0055183D01*
X0063370Y0055139D01*
X0063291Y0055099D01*
X0063211Y0055062D01*
X0063129Y0055030D01*
X0063045Y0055000D01*
X0062961Y0054975D01*
X0062875Y0054953D01*
X0062789Y0054936D01*
X0062701Y0054922D01*
X0062613Y0054912D01*
X0062525Y0054906D01*
X0062437Y0054904D01*
X0062349Y0054906D01*
X0062261Y0054912D01*
X0062173Y0054922D01*
X0062085Y0054936D01*
X0061999Y0054953D01*
X0061913Y0054975D01*
X0061829Y0055000D01*
X0061745Y0055030D01*
X0061663Y0055062D01*
X0061583Y0055099D01*
X0061504Y0055139D01*
X0061427Y0055183D01*
X0061352Y0055230D01*
X0061280Y0055280D01*
X0061209Y0055334D01*
X0061142Y0055390D01*
X0061076Y0055450D01*
X0061014Y0055512D01*
X0060954Y0055578D01*
X0060898Y0055645D01*
X0060844Y0055716D01*
X0060794Y0055788D01*
X0060747Y0055863D01*
X0060703Y0055940D01*
X0060663Y0056019D01*
X0060626Y0056099D01*
X0060594Y0056181D01*
X0060564Y0056265D01*
X0060539Y0056349D01*
X0060517Y0056435D01*
X0060500Y0056521D01*
X0060486Y0056609D01*
X0060476Y0056697D01*
X0060470Y0056785D01*
X0060468Y0056873D01*
D25*
X0060528Y0062424D03*
X0065488Y0062424D03*
X0070488Y0062424D03*
X0075488Y0062424D03*
X0075528Y0042542D03*
X0070528Y0042542D03*
X0065528Y0042542D03*
X0060528Y0042542D03*
M02*
