G75*
%MOIN*%
%OFA0B0*%
%FSLAX25Y25*%
%IPPOS*%
%LPD*%
%AMOC8*
5,1,8,0,0,1.08239X$1,22.5*
%
%ADD10R,0.05118X0.05906*%
%ADD11R,0.05512X0.03937*%
%ADD12OC8,0.08600*%
%ADD13R,0.05512X0.05512*%
%ADD14R,0.07087X0.04331*%
%ADD15R,0.05118X0.05000*%
%ADD16R,0.05000X0.07480*%
%ADD17C,0.02400*%
%ADD18C,0.01000*%
%ADD19C,0.00591*%
D10*
X0046472Y0029649D03*
X0053953Y0029649D03*
X0060252Y0029649D03*
X0060252Y0036341D03*
X0060205Y0042963D03*
X0053953Y0042247D03*
X0060252Y0049727D03*
X0067732Y0049727D03*
X0067685Y0042963D03*
X0067732Y0036341D03*
X0067732Y0029649D03*
X0046472Y0042247D03*
D11*
X0024543Y0027885D03*
X0030882Y0031562D03*
X0024543Y0035365D03*
X0024543Y0040704D03*
X0030882Y0044562D03*
X0024543Y0048184D03*
X0015882Y0044444D03*
X0015882Y0031625D03*
X0039543Y0035302D03*
X0039543Y0040822D03*
X0039543Y0048302D03*
X0039543Y0027822D03*
D12*
X0008087Y0030042D03*
X0008087Y0040042D03*
X0008087Y0050042D03*
X0008087Y0060042D03*
X0008087Y0070042D03*
X0008087Y0080042D03*
D13*
X0075803Y0045790D03*
X0085646Y0045790D03*
X0085646Y0030830D03*
X0075803Y0030830D03*
D14*
X0045488Y0055830D03*
X0045488Y0070397D03*
X0021079Y0070397D03*
X0021079Y0055830D03*
D15*
X0046827Y0079649D03*
X0056827Y0079649D03*
X0076827Y0079649D03*
X0086827Y0079649D03*
D16*
X0066748Y0080830D03*
D17*
X0066748Y0073743D03*
X0057693Y0071381D03*
X0070291Y0057601D03*
X0078953Y0040672D03*
X0078559Y0035948D03*
X0080528Y0028861D03*
X0088008Y0052877D03*
X0054150Y0034373D03*
X0050606Y0034373D03*
X0048244Y0048034D03*
X0034465Y0037916D03*
X0030921Y0055633D03*
X0034858Y0071774D03*
D18*
X0034858Y0069806D01*
X0039189Y0065475D01*
X0043913Y0065475D01*
X0045488Y0063900D01*
X0045488Y0055830D01*
X0044835Y0052302D02*
X0044340Y0052377D01*
X0049565Y0052377D01*
X0050319Y0053131D01*
X0050319Y0058528D01*
X0049565Y0059282D01*
X0047276Y0059282D01*
X0047276Y0064641D01*
X0046229Y0065688D01*
X0044973Y0066944D01*
X0049565Y0066944D01*
X0050319Y0067698D01*
X0050319Y0073095D01*
X0049565Y0073849D01*
X0048614Y0073849D01*
X0048614Y0074924D01*
X0075197Y0074924D01*
X0075197Y0069397D01*
X0072866Y0071727D01*
X0071819Y0072774D01*
X0059808Y0072774D01*
X0059802Y0072790D01*
X0059102Y0073490D01*
X0058188Y0073868D01*
X0057198Y0073868D01*
X0056284Y0073490D01*
X0055584Y0072790D01*
X0055206Y0071876D01*
X0055206Y0070886D01*
X0055584Y0069972D01*
X0056284Y0069272D01*
X0057198Y0068893D01*
X0058188Y0068893D01*
X0058927Y0069200D01*
X0070338Y0069200D01*
X0072047Y0067491D01*
X0072047Y0059617D01*
X0072275Y0059389D01*
X0072022Y0059389D01*
X0071700Y0059710D01*
X0070786Y0060089D01*
X0069797Y0060089D01*
X0068882Y0059710D01*
X0068183Y0059010D01*
X0067804Y0058096D01*
X0067804Y0057106D01*
X0068183Y0056192D01*
X0068882Y0055493D01*
X0069797Y0055114D01*
X0070786Y0055114D01*
X0071700Y0055493D01*
X0071967Y0055760D01*
X0074016Y0053711D01*
X0074016Y0049834D01*
X0072514Y0049834D01*
X0071791Y0049111D01*
X0071791Y0049227D01*
X0068232Y0049227D01*
X0068232Y0047416D01*
X0068185Y0047416D01*
X0068185Y0043464D01*
X0067185Y0043464D01*
X0067185Y0045274D01*
X0067232Y0045274D01*
X0067232Y0049227D01*
X0068232Y0049227D01*
X0068232Y0050227D01*
X0067232Y0050227D01*
X0067232Y0054180D01*
X0064976Y0054180D01*
X0064594Y0054078D01*
X0064252Y0053880D01*
X0063973Y0053601D01*
X0063877Y0053435D01*
X0063344Y0053967D01*
X0057160Y0053967D01*
X0056406Y0053213D01*
X0056406Y0052302D01*
X0044835Y0052302D01*
X0044214Y0052377D02*
X0044113Y0052302D01*
X0043960Y0052302D01*
X0043532Y0051873D01*
X0042948Y0051443D01*
X0042832Y0051558D01*
X0036254Y0051558D01*
X0035500Y0050804D01*
X0035500Y0045800D01*
X0036254Y0045046D01*
X0042626Y0045046D01*
X0042626Y0044078D01*
X0036254Y0044078D01*
X0035500Y0043323D01*
X0035500Y0038320D01*
X0035758Y0038062D01*
X0035500Y0037804D01*
X0035500Y0032800D01*
X0036254Y0032046D01*
X0042626Y0032046D01*
X0042626Y0031078D01*
X0036254Y0031078D01*
X0035500Y0030323D01*
X0035500Y0025637D01*
X0028587Y0025637D01*
X0028587Y0026739D01*
X0030154Y0028306D01*
X0034171Y0028306D01*
X0034925Y0029060D01*
X0034925Y0034064D01*
X0034171Y0034818D01*
X0028587Y0034818D01*
X0028587Y0037867D01*
X0028419Y0038034D01*
X0028587Y0038202D01*
X0028587Y0039739D01*
X0030154Y0041306D01*
X0034171Y0041306D01*
X0034925Y0042060D01*
X0034925Y0047064D01*
X0034171Y0047818D01*
X0028587Y0047818D01*
X0028587Y0050686D01*
X0027954Y0051319D01*
X0028772Y0052136D01*
X0028772Y0059523D01*
X0027725Y0060570D01*
X0022866Y0065428D01*
X0022866Y0066944D01*
X0025155Y0066944D01*
X0025909Y0067698D01*
X0025909Y0073095D01*
X0025155Y0073849D01*
X0017002Y0073849D01*
X0016248Y0073095D01*
X0016248Y0067698D01*
X0017002Y0066944D01*
X0019291Y0066944D01*
X0019291Y0063948D01*
X0023956Y0059282D01*
X0017002Y0059282D01*
X0016248Y0058528D01*
X0016248Y0053131D01*
X0017002Y0052377D01*
X0023956Y0052377D01*
X0023882Y0052302D01*
X0023019Y0051440D01*
X0021254Y0051440D01*
X0020500Y0050686D01*
X0020500Y0050334D01*
X0013674Y0050334D01*
X0013674Y0052357D01*
X0011139Y0054892D01*
X0013887Y0057640D01*
X0013887Y0059755D01*
X0008374Y0059755D01*
X0008374Y0060330D01*
X0013887Y0060330D01*
X0013887Y0062445D01*
X0011139Y0065193D01*
X0013674Y0067728D01*
X0013674Y0072357D01*
X0010988Y0075042D01*
X0013674Y0077728D01*
X0013674Y0082357D01*
X0010914Y0085117D01*
X0033752Y0085117D01*
X0033752Y0075090D01*
X0034580Y0074262D01*
X0034363Y0074262D01*
X0033449Y0073883D01*
X0032750Y0073183D01*
X0032371Y0072269D01*
X0032371Y0071280D01*
X0032750Y0070365D01*
X0033071Y0070044D01*
X0033071Y0069066D01*
X0037402Y0064735D01*
X0038449Y0063688D01*
X0043173Y0063688D01*
X0043701Y0063160D01*
X0043701Y0059282D01*
X0041412Y0059282D01*
X0040657Y0058528D01*
X0040657Y0053131D01*
X0041412Y0052377D01*
X0044214Y0052377D01*
X0043753Y0052095D02*
X0028730Y0052095D01*
X0028772Y0053094D02*
X0040695Y0053094D01*
X0040657Y0054092D02*
X0028772Y0054092D01*
X0028772Y0055091D02*
X0040657Y0055091D01*
X0040657Y0056089D02*
X0028772Y0056089D01*
X0028772Y0057088D02*
X0040657Y0057088D01*
X0040657Y0058086D02*
X0028772Y0058086D01*
X0028772Y0059085D02*
X0041214Y0059085D01*
X0043701Y0060083D02*
X0028211Y0060083D01*
X0027213Y0061082D02*
X0043701Y0061082D01*
X0043701Y0062080D02*
X0026214Y0062080D01*
X0025216Y0063079D02*
X0043701Y0063079D01*
X0045842Y0066074D02*
X0072047Y0066074D01*
X0072047Y0065076D02*
X0046841Y0065076D01*
X0047276Y0064077D02*
X0072047Y0064077D01*
X0072047Y0063079D02*
X0047276Y0063079D01*
X0047276Y0062080D02*
X0072047Y0062080D01*
X0072047Y0061082D02*
X0047276Y0061082D01*
X0047276Y0060083D02*
X0069783Y0060083D01*
X0070800Y0060083D02*
X0072047Y0060083D01*
X0073835Y0060357D02*
X0079740Y0054452D01*
X0079740Y0041853D01*
X0078953Y0040672D01*
X0077959Y0038391D02*
X0077150Y0038056D01*
X0076450Y0037357D01*
X0076072Y0036442D01*
X0076072Y0035453D01*
X0076303Y0034894D01*
X0076303Y0031330D01*
X0075303Y0031330D01*
X0075303Y0035086D01*
X0072850Y0035086D01*
X0072468Y0034983D01*
X0072126Y0034786D01*
X0071847Y0034507D01*
X0071791Y0034410D01*
X0071791Y0035841D01*
X0068232Y0035841D01*
X0068232Y0031889D01*
X0068232Y0030149D01*
X0067232Y0030149D01*
X0067232Y0035841D01*
X0068232Y0035841D01*
X0068232Y0036841D01*
X0071791Y0036841D01*
X0071791Y0039492D01*
X0071725Y0039741D01*
X0071744Y0039813D01*
X0071744Y0042463D01*
X0068185Y0042463D01*
X0068185Y0038511D01*
X0068232Y0038511D01*
X0068232Y0036841D01*
X0067232Y0036841D01*
X0067232Y0040794D01*
X0067185Y0040794D01*
X0067185Y0042463D01*
X0068185Y0042463D01*
X0068185Y0043463D01*
X0071744Y0043463D01*
X0071744Y0046114D01*
X0071706Y0046257D01*
X0071760Y0046460D01*
X0071760Y0042501D01*
X0072514Y0041747D01*
X0076706Y0041747D01*
X0076465Y0041167D01*
X0076465Y0040177D01*
X0076844Y0039263D01*
X0077544Y0038563D01*
X0077959Y0038391D01*
X0077294Y0038116D02*
X0071791Y0038116D01*
X0071791Y0039114D02*
X0076993Y0039114D01*
X0076492Y0040113D02*
X0071744Y0040113D01*
X0071744Y0041111D02*
X0076465Y0041111D01*
X0076351Y0037117D02*
X0071791Y0037117D01*
X0071791Y0035120D02*
X0076209Y0035120D01*
X0076303Y0034122D02*
X0075303Y0034122D01*
X0075303Y0033123D02*
X0076303Y0033123D01*
X0076303Y0032125D02*
X0075303Y0032125D01*
X0076303Y0031330D02*
X0080059Y0031330D01*
X0080059Y0033783D01*
X0080028Y0033899D01*
X0080668Y0034539D01*
X0081046Y0035453D01*
X0081046Y0036056D01*
X0083010Y0038264D01*
X0083496Y0038751D01*
X0083496Y0038811D01*
X0083536Y0038857D01*
X0083496Y0039544D01*
X0083496Y0041747D01*
X0088787Y0041747D01*
X0088787Y0035035D01*
X0088599Y0035086D01*
X0086146Y0035086D01*
X0086146Y0031330D01*
X0085146Y0031330D01*
X0085146Y0035086D01*
X0082692Y0035086D01*
X0082311Y0034983D01*
X0081969Y0034786D01*
X0081689Y0034507D01*
X0081492Y0034164D01*
X0081390Y0033783D01*
X0081390Y0031330D01*
X0085146Y0031330D01*
X0085146Y0030330D01*
X0081390Y0030330D01*
X0081390Y0027876D01*
X0081492Y0027495D01*
X0081608Y0027294D01*
X0079841Y0027294D01*
X0079957Y0027495D01*
X0080059Y0027876D01*
X0080059Y0030330D01*
X0076303Y0030330D01*
X0076303Y0031330D01*
X0076303Y0031126D02*
X0085146Y0031126D01*
X0085146Y0032125D02*
X0086146Y0032125D01*
X0086146Y0033123D02*
X0085146Y0033123D01*
X0085146Y0034122D02*
X0086146Y0034122D01*
X0088787Y0035120D02*
X0080909Y0035120D01*
X0081103Y0036119D02*
X0088787Y0036119D01*
X0088787Y0037117D02*
X0081990Y0037117D01*
X0082878Y0038116D02*
X0088787Y0038116D01*
X0088787Y0039114D02*
X0083521Y0039114D01*
X0083496Y0040113D02*
X0088787Y0040113D01*
X0088787Y0041111D02*
X0083496Y0041111D01*
X0081709Y0039491D02*
X0078559Y0035948D01*
X0080251Y0034122D02*
X0081481Y0034122D01*
X0081390Y0033123D02*
X0080059Y0033123D01*
X0080059Y0032125D02*
X0081390Y0032125D01*
X0081390Y0030128D02*
X0080059Y0030128D01*
X0080059Y0029129D02*
X0081390Y0029129D01*
X0081390Y0028131D02*
X0080059Y0028131D01*
X0076072Y0036119D02*
X0068232Y0036119D01*
X0068232Y0037117D02*
X0067232Y0037117D01*
X0067232Y0038116D02*
X0068232Y0038116D01*
X0068185Y0039114D02*
X0067232Y0039114D01*
X0067232Y0040113D02*
X0068185Y0040113D01*
X0068185Y0041111D02*
X0067185Y0041111D01*
X0067185Y0042110D02*
X0068185Y0042110D01*
X0068185Y0043108D02*
X0071760Y0043108D01*
X0071744Y0042110D02*
X0072151Y0042110D01*
X0071760Y0044107D02*
X0071744Y0044107D01*
X0071744Y0045105D02*
X0071760Y0045105D01*
X0071744Y0046104D02*
X0071760Y0046104D01*
X0068185Y0046104D02*
X0067232Y0046104D01*
X0067232Y0047102D02*
X0068185Y0047102D01*
X0068232Y0048101D02*
X0067232Y0048101D01*
X0067232Y0049099D02*
X0068232Y0049099D01*
X0068232Y0050098D02*
X0074016Y0050098D01*
X0074016Y0051097D02*
X0071791Y0051097D01*
X0071791Y0050227D02*
X0071791Y0052877D01*
X0071689Y0053259D01*
X0071492Y0053601D01*
X0071212Y0053880D01*
X0070870Y0054078D01*
X0070489Y0054180D01*
X0068232Y0054180D01*
X0068232Y0050227D01*
X0071791Y0050227D01*
X0071791Y0052095D02*
X0074016Y0052095D01*
X0074016Y0053094D02*
X0071733Y0053094D01*
X0070817Y0054092D02*
X0073635Y0054092D01*
X0072636Y0055091D02*
X0050319Y0055091D01*
X0050319Y0056089D02*
X0068286Y0056089D01*
X0067812Y0057088D02*
X0050319Y0057088D01*
X0050319Y0058086D02*
X0067804Y0058086D01*
X0068257Y0059085D02*
X0049763Y0059085D01*
X0050319Y0054092D02*
X0064648Y0054092D01*
X0067232Y0054092D02*
X0068232Y0054092D01*
X0068232Y0053094D02*
X0067232Y0053094D01*
X0067232Y0052095D02*
X0068232Y0052095D01*
X0068232Y0051097D02*
X0067232Y0051097D01*
X0067185Y0045105D02*
X0068185Y0045105D01*
X0068185Y0044107D02*
X0067185Y0044107D01*
X0060669Y0042247D02*
X0060205Y0042963D01*
X0060669Y0042247D02*
X0053953Y0042247D01*
X0051276Y0048034D01*
X0048244Y0048034D01*
X0044701Y0050515D02*
X0058677Y0050515D01*
X0060252Y0049727D01*
X0056406Y0053094D02*
X0050281Y0053094D01*
X0044701Y0050515D02*
X0041701Y0048302D01*
X0039543Y0048302D01*
X0041307Y0048302D01*
X0039543Y0048302D02*
X0039543Y0048192D01*
X0036195Y0045105D02*
X0034925Y0045105D01*
X0034925Y0044107D02*
X0042626Y0044107D01*
X0045047Y0040822D02*
X0039543Y0040822D01*
X0035500Y0041111D02*
X0029959Y0041111D01*
X0028961Y0040113D02*
X0035500Y0040113D01*
X0035500Y0039114D02*
X0028587Y0039114D01*
X0028501Y0038116D02*
X0035704Y0038116D01*
X0035500Y0037117D02*
X0028587Y0037117D01*
X0028587Y0036119D02*
X0035500Y0036119D01*
X0035500Y0035120D02*
X0028587Y0035120D01*
X0024543Y0035365D02*
X0024339Y0035160D01*
X0021866Y0035160D01*
X0020291Y0036735D01*
X0020291Y0044609D01*
X0023866Y0048184D01*
X0024543Y0048184D01*
X0024622Y0048263D01*
X0024622Y0050515D01*
X0026984Y0052877D01*
X0026984Y0058782D01*
X0021079Y0064688D01*
X0021079Y0070397D01*
X0022866Y0066074D02*
X0036062Y0066074D01*
X0035064Y0067073D02*
X0025284Y0067073D01*
X0025909Y0068071D02*
X0034065Y0068071D01*
X0033071Y0069070D02*
X0025909Y0069070D01*
X0025909Y0070068D02*
X0033047Y0070068D01*
X0032459Y0071067D02*
X0025909Y0071067D01*
X0025909Y0072065D02*
X0032371Y0072065D01*
X0032700Y0073064D02*
X0025909Y0073064D01*
X0019291Y0066074D02*
X0012020Y0066074D01*
X0011256Y0065076D02*
X0019291Y0065076D01*
X0019291Y0064077D02*
X0012254Y0064077D01*
X0013253Y0063079D02*
X0020160Y0063079D01*
X0021159Y0062080D02*
X0013887Y0062080D01*
X0013887Y0061082D02*
X0022157Y0061082D01*
X0023156Y0060083D02*
X0008374Y0060083D01*
X0012336Y0056089D02*
X0016248Y0056089D01*
X0016248Y0055091D02*
X0011337Y0055091D01*
X0011939Y0054092D02*
X0016248Y0054092D01*
X0016285Y0053094D02*
X0012937Y0053094D01*
X0013674Y0052095D02*
X0023675Y0052095D01*
X0020911Y0051097D02*
X0013674Y0051097D01*
X0009976Y0048546D02*
X0023835Y0048546D01*
X0024622Y0048263D01*
X0028176Y0051097D02*
X0035793Y0051097D01*
X0035500Y0050098D02*
X0028587Y0050098D01*
X0028587Y0049099D02*
X0035500Y0049099D01*
X0035500Y0048101D02*
X0028587Y0048101D01*
X0030882Y0044562D02*
X0027024Y0040704D01*
X0024543Y0040704D01*
X0015882Y0042168D02*
X0014189Y0040475D01*
X0010488Y0040475D01*
X0008087Y0040042D01*
X0015882Y0042168D02*
X0015882Y0044444D01*
X0009976Y0048546D02*
X0008087Y0050042D01*
X0013334Y0057088D02*
X0016248Y0057088D01*
X0016248Y0058086D02*
X0013887Y0058086D01*
X0013887Y0059085D02*
X0016804Y0059085D01*
X0023219Y0065076D02*
X0037061Y0065076D01*
X0038059Y0064077D02*
X0024217Y0064077D01*
X0016873Y0067073D02*
X0013019Y0067073D01*
X0013674Y0068071D02*
X0016248Y0068071D01*
X0016248Y0069070D02*
X0013674Y0069070D01*
X0013674Y0070068D02*
X0016248Y0070068D01*
X0016248Y0071067D02*
X0013674Y0071067D01*
X0013674Y0072065D02*
X0016248Y0072065D01*
X0016248Y0073064D02*
X0012967Y0073064D01*
X0011968Y0074062D02*
X0033882Y0074062D01*
X0033781Y0075061D02*
X0011007Y0075061D01*
X0012005Y0076059D02*
X0033752Y0076059D01*
X0033752Y0077058D02*
X0013004Y0077058D01*
X0013674Y0078056D02*
X0033752Y0078056D01*
X0033752Y0079055D02*
X0013674Y0079055D01*
X0013674Y0080053D02*
X0033752Y0080053D01*
X0033752Y0081052D02*
X0013674Y0081052D01*
X0013674Y0082050D02*
X0033752Y0082050D01*
X0033752Y0083049D02*
X0012982Y0083049D01*
X0011983Y0084047D02*
X0033752Y0084047D01*
X0033752Y0085046D02*
X0010985Y0085046D01*
X0045488Y0078310D02*
X0046827Y0079649D01*
X0046827Y0071735D01*
X0045488Y0070397D01*
X0048614Y0074062D02*
X0075197Y0074062D01*
X0075197Y0073064D02*
X0059528Y0073064D01*
X0057693Y0071381D02*
X0058087Y0070987D01*
X0071079Y0070987D01*
X0073835Y0068231D01*
X0073835Y0060357D01*
X0072654Y0057601D02*
X0070291Y0057601D01*
X0072654Y0057601D02*
X0075803Y0054452D01*
X0075803Y0045790D01*
X0081709Y0039491D02*
X0081709Y0055633D01*
X0076984Y0060751D01*
X0076984Y0080672D01*
X0076827Y0079649D01*
X0075197Y0072065D02*
X0072528Y0072065D01*
X0073527Y0071067D02*
X0075197Y0071067D01*
X0075197Y0070068D02*
X0074525Y0070068D01*
X0071467Y0068071D02*
X0050319Y0068071D01*
X0050319Y0069070D02*
X0056772Y0069070D01*
X0055544Y0070068D02*
X0050319Y0070068D01*
X0050319Y0071067D02*
X0055206Y0071067D01*
X0055284Y0072065D02*
X0050319Y0072065D01*
X0050319Y0073064D02*
X0055858Y0073064D01*
X0058613Y0069070D02*
X0070468Y0069070D01*
X0072047Y0067073D02*
X0049694Y0067073D01*
X0066748Y0073743D02*
X0066748Y0080830D01*
X0088008Y0052877D02*
X0088008Y0049334D01*
X0085646Y0045790D01*
X0068232Y0035120D02*
X0067232Y0035120D01*
X0067232Y0034122D02*
X0068232Y0034122D01*
X0068232Y0033123D02*
X0067232Y0033123D01*
X0067232Y0032125D02*
X0068232Y0032125D01*
X0068232Y0031126D02*
X0067232Y0031126D01*
X0060252Y0029649D02*
X0053953Y0029649D01*
X0053953Y0032208D01*
X0054150Y0034373D01*
X0058283Y0037129D02*
X0060252Y0036341D01*
X0058283Y0037129D02*
X0044307Y0037129D01*
X0042087Y0035302D01*
X0039543Y0035302D01*
X0036175Y0032125D02*
X0034925Y0032125D01*
X0034925Y0033123D02*
X0035500Y0033123D01*
X0035500Y0034122D02*
X0034867Y0034122D01*
X0034925Y0031126D02*
X0042626Y0031126D01*
X0046472Y0029649D02*
X0045583Y0027822D01*
X0039543Y0027822D01*
X0035500Y0028131D02*
X0029979Y0028131D01*
X0028980Y0027132D02*
X0035500Y0027132D01*
X0035500Y0026134D02*
X0028587Y0026134D01*
X0027205Y0027885D02*
X0030882Y0031562D01*
X0034925Y0030128D02*
X0035500Y0030128D01*
X0035500Y0029129D02*
X0034925Y0029129D01*
X0027205Y0027885D02*
X0024543Y0027885D01*
X0015882Y0031625D02*
X0013906Y0030042D01*
X0008087Y0030042D01*
X0034925Y0042110D02*
X0035500Y0042110D01*
X0035500Y0043108D02*
X0034925Y0043108D01*
X0034925Y0046104D02*
X0035500Y0046104D01*
X0035500Y0047102D02*
X0034886Y0047102D01*
X0045047Y0040822D02*
X0046472Y0042247D01*
D19*
X0050606Y0034373D02*
X0050606Y0033586D01*
X0050213Y0032798D01*
X0050213Y0026105D01*
X0050606Y0025712D01*
X0088402Y0025712D01*
X0090370Y0027680D01*
X0090370Y0069019D01*
X0087220Y0072168D01*
X0087220Y0079255D01*
X0086827Y0079649D01*
M02*
